<?xml version="1.0" encoding="utf-8"?>
<!-- Generator: Adobe Illustrator 19.2.1, SVG Export Plug-In . SVG Version: 6.00 Build 0)  -->
<svg version="1.1" id="Layer_1" xmlns="http://www.w3.org/2000/svg" xmlns:xlink="http://www.w3.org/1999/xlink" x="0px" y="0px"
	 viewBox="0 0 5670 590" style="enable-background:new 0 0 5670 590;" xml:space="preserve">
<style type="text/css">
	.st0{fill:#FFFFFF;}
	.st1{fill:#DD4343;}
</style>
<path class="st0" d="M1321.7,398.5c0-41-32.4-74.5-73-76.3c0.1-2.8,0.2-5.6,0.2-8.5c0-86.5-70.1-156.6-156.6-156.6
	c-58.9,0-110.3,32.5-137,80.6c-12.7-4.7-26.5-7.3-40.9-7.3c-56.2,0-103.2,39.3-115.1,91.9c-39.4,3-70.4,35.9-70.4,76.1
	c0,42.2,34.2,76.4,76.4,76.4h443.7v-0.1C1289.4,472.9,1321.7,439.4,1321.7,398.5z"/>
<path class="st0" d="M475.2,315.9L475.2,315.9c21-1,37.6-18.3,37.6-39.5c0-21.2-16.8-38.6-37.8-39.5c0.1-1.5,0.1-2.9,0.1-4.4
	c0-44.8-36.3-81-81-81c-30.5,0-57,16.8-70.9,41.7c-6.6-2.4-13.7-3.8-21.1-3.8c-29.1,0-53.4,20.3-59.6,47.6
	c-20.4,1.6-36.4,18.6-36.4,39.4c0,21.8,17.7,39.5,39.5,39.5"/>
<path class="st0" d="M1703.6,241c0-20.5-16.2-37.3-36.5-38.1c0.1-1.4,0.1-2.8,0.1-4.2c0-43.3-35.1-78.3-78.3-78.3
	c-29.5,0-55.1,16.3-68.5,40.3c-6.4-2.4-13.3-3.6-20.4-3.6c-28.1,0-51.6,19.6-57.6,46c-19.7,1.5-35.2,18-35.2,38.1
	c0,21.1,17.1,38.2,38.2,38.2h221.8v0C1687.5,278.2,1703.6,261.5,1703.6,241z"/>
<path class="st0" d="M2318.3,350.1c0-35.3-27.8-64-62.7-65.5c0.1-2.4,0.2-4.8,0.2-7.3c0-74.3-60.2-134.5-134.5-134.5
	c-50.6,0-94.7,28-117.7,69.3c-10.9-4-22.8-6.2-35.1-6.2c-48.3,0-88.6,33.8-98.9,78.9c-33.8,2.6-60.5,30.9-60.5,65.4
	c0,36.2,29.4,65.6,65.6,65.6h381.1v-0.1C2290.6,414,2318.3,385.3,2318.3,350.1z"/>
<path class="st0" d="M3247.1,406.1c0-50.8-40.1-92.3-90.4-94.5c0.2-3.5,0.3-7,0.3-10.5c0-107.1-86.8-194-194-194
	c-73,0-136.5,40.3-169.6,99.9c-15.8-5.8-32.8-9-50.6-9c-69.6,0-127.8,48.7-142.6,113.8c-48.8,3.8-87.2,44.5-87.2,94.3
	c0,52.2,42.3,94.6,94.6,94.6H3157v-0.1C3207.2,498.3,3247.1,456.9,3247.1,406.1z"/>
<path class="st0" d="M3772.8,228.4c0-22.9-18.1-41.6-40.7-42.6c0.1-1.6,0.1-3.1,0.1-4.7c0-48.3-39.2-87.4-87.4-87.4
	c-32.9,0-61.6,18.2-76.5,45c-7.1-2.6-14.8-4.1-22.8-4.1c-31.4,0-57.6,21.9-64.3,51.3c-22,1.7-39.3,20.1-39.3,42.5
	c0,23.5,19.1,42.6,42.6,42.6h247.7V271C3754.8,269.9,3772.8,251.2,3772.8,228.4z"/>
<path class="st0" d="M4337.3,453.4c0-25.5-20.1-46.2-45.3-47.3c0.1-1.7,0.1-3.5,0.1-5.3c0-53.6-43.5-97.1-97.1-97.1
	c-36.5,0-68.4,20.2-84.9,50c-7.9-2.9-16.4-4.5-25.3-4.5c-34.9,0-64,24.4-71.4,57c-24.4,1.9-43.7,22.3-43.7,47.2
	c0,26.2,21.2,47.4,47.4,47.4h275.1v-0.1C4317.3,499.5,4337.3,478.8,4337.3,453.4z"/>
<path class="st0" d="M5564.6,423.3c0-28.6-22.5-51.8-50.8-53.1c0.1-2,0.2-3.9,0.2-5.9c0-60.2-48.8-109-109-109
	c-41,0-76.7,22.6-95.3,56.1c-8.9-3.3-18.4-5.1-28.4-5.1c-39.1,0-71.8,27.3-80.1,63.9c-27.4,2.1-49,25-49,52.9
	c0,29.3,23.8,53.1,53.1,53.1H5514v-0.1C5542.2,475.1,5564.6,451.8,5564.6,423.3z"/>
<path class="st0" d="M4995.6,288.5c0-30.9-24.4-56.2-55-57.5c0.1-2.1,0.2-4.2,0.2-6.4c0-65.2-52.9-118.1-118.1-118.1
	c-44.4,0-83.1,24.5-103.2,60.8c-9.6-3.5-20-5.5-30.8-5.5c-42.4,0-77.8,29.6-86.8,69.3c-29.7,2.3-53.1,27.1-53.1,57.4
	c0,31.8,25.8,57.6,57.6,57.6h334.4V346C4971.3,344.6,4995.6,319.4,4995.6,288.5z"/>
<path class="st1" d="M345.4,297.2"/>
</svg>
