<svg xmlns="http://www.w3.org/2000/svg" xmlns:xlink="http://www.w3.org/1999/xlink" width="5670" height="590" viewBox="0 0 5670 590">
  <defs>
    <style>
      .cls-1, .cls-2, .cls-3, .cls-4, .cls-5, .cls-6, .cls-7, .cls-8, .cls-9 {
        fill: #fcfcfc;
        stroke: #ffebee;
        stroke-width: 1px;
        fill-rule: evenodd;
      }

      .cls-1 {
        filter: url(#filter);
      }

      .cls-2 {
        filter: url(#filter-2);
      }

      .cls-3 {
        filter: url(#filter-3);
      }

      .cls-4 {
        filter: url(#filter-4);
      }

      .cls-5 {
        filter: url(#filter-5);
      }

      .cls-6 {
        filter: url(#filter-6);
      }

      .cls-7 {
        filter: url(#filter-7);
      }

      .cls-8 {
        filter: url(#filter-8);
      }

      .cls-9 {
        filter: url(#filter-9);
      }
    </style>
    <filter id="filter" x="1623" y="61" width="829" height="671" filterUnits="userSpaceOnUse">
      <feOffset result="offset" dy="37" in="SourceAlpha"/>
      <feGaussianBlur result="blur" stdDeviation="15.811"/>
      <feFlood result="flood" flood-color="#00b0d7" flood-opacity="0.25"/>
      <feComposite result="composite" operator="in" in2="blur"/>
      <feBlend result="blend" in="SourceGraphic"/>
    </filter>
    <filter id="filter-2" x="2258" y="-23" width="829" height="671" filterUnits="userSpaceOnUse">
      <feOffset result="offset" dy="37" in="SourceAlpha"/>
      <feGaussianBlur result="blur" stdDeviation="15.811"/>
      <feFlood result="flood" flood-color="#00b0d7" flood-opacity="0.25"/>
      <feComposite result="composite" operator="in" in2="blur"/>
      <feBlend result="blend" in="SourceGraphic"/>
    </filter>
    <filter id="filter-3" x="3082" y="-86" width="829" height="671" filterUnits="userSpaceOnUse">
      <feOffset result="offset" dy="37" in="SourceAlpha"/>
      <feGaussianBlur result="blur" stdDeviation="15.811"/>
      <feFlood result="flood" flood-color="#00b0d7" flood-opacity="0.25"/>
      <feComposite result="composite" operator="in" in2="blur"/>
      <feBlend result="blend" in="SourceGraphic"/>
    </filter>
    <filter id="filter-4" x="3619" y="145" width="829" height="671" filterUnits="userSpaceOnUse">
      <feOffset result="offset" dy="37" in="SourceAlpha"/>
      <feGaussianBlur result="blur" stdDeviation="15.811"/>
      <feFlood result="flood" flood-color="#00b0d7" flood-opacity="0.25"/>
      <feComposite result="composite" operator="in" in2="blur"/>
      <feBlend result="blend" in="SourceGraphic"/>
    </filter>
    <filter id="filter-5" x="4134" y="-86" width="829" height="671" filterUnits="userSpaceOnUse">
      <feOffset result="offset" dy="37" in="SourceAlpha"/>
      <feGaussianBlur result="blur" stdDeviation="15.811"/>
      <feFlood result="flood" flood-color="#00b0d7" flood-opacity="0.25"/>
      <feComposite result="composite" operator="in" in2="blur"/>
      <feBlend result="blend" in="SourceGraphic"/>
    </filter>
    <filter id="filter-6" x="5037" y="81" width="829" height="671" filterUnits="userSpaceOnUse">
      <feOffset result="offset" dy="37" in="SourceAlpha"/>
      <feGaussianBlur result="blur" stdDeviation="15.811"/>
      <feFlood result="flood" flood-color="#00b0d7" flood-opacity="0.25"/>
      <feComposite result="composite" operator="in" in2="blur"/>
      <feBlend result="blend" in="SourceGraphic"/>
    </filter>
    <filter id="filter-7" x="1199" y="-170" width="829" height="671" filterUnits="userSpaceOnUse">
      <feOffset result="offset" dy="37" in="SourceAlpha"/>
      <feGaussianBlur result="blur" stdDeviation="15.811"/>
      <feFlood result="flood" flood-color="#00b0d7" flood-opacity="0.25"/>
      <feComposite result="composite" operator="in" in2="blur"/>
      <feBlend result="blend" in="SourceGraphic"/>
    </filter>
    <filter id="filter-8" x="682" y="81" width="829" height="671" filterUnits="userSpaceOnUse">
      <feOffset result="offset" dy="37" in="SourceAlpha"/>
      <feGaussianBlur result="blur" stdDeviation="15.811"/>
      <feFlood result="flood" flood-color="#00b0d7" flood-opacity="0.25"/>
      <feComposite result="composite" operator="in" in2="blur"/>
      <feBlend result="blend" in="SourceGraphic"/>
    </filter>
    <filter id="filter-9" x="-22" y="-86" width="829" height="671" filterUnits="userSpaceOnUse">
      <feOffset result="offset" dy="37" in="SourceAlpha"/>
      <feGaussianBlur result="blur" stdDeviation="15.811"/>
      <feFlood result="flood" flood-color="#00b0d7" flood-opacity="0.25"/>
      <feComposite result="composite" operator="in" in2="blur"/>
      <feBlend result="blend" in="SourceGraphic"/>
    </filter>
  </defs>
  <g style="fill: #fcfcfc; filter: url(#filter)">
    <path id="Cloud_copy_2" data-name="Cloud copy 2" class="cls-1" d="M1874.04,391.252s-3.15-55.445,42.81-70.57,52.57-8.757,57.42-8.982c1.81-1.192,24.91,4.84,26.88,7.974,1.95,3.115,55.52-99.491,140.16-3.7,2.28,2.588,68.16,11.9,57.53,85.021S1882.99,435.859,1874.04,391.252Z" style="stroke: inherit; filter: none; fill: inherit"/>
  </g>
  <use xlink:href="#Cloud_copy_2" style="stroke: #ffebee; filter: none; fill: none"/>
  <g style="fill: #fcfcfc; filter: url(#filter-2)">
    <path id="Cloud_copy_6" data-name="Cloud copy 6" class="cls-2" d="M2509.04,307.252s-3.15-55.445,42.81-70.57,52.57-8.757,57.42-8.982c1.81-1.192,24.91,4.84,26.88,7.974,1.95,3.115,55.52-99.491,140.16-3.7,2.28,2.588,68.16,11.9,57.53,85.021S2517.99,351.859,2509.04,307.252Z" style="stroke: inherit; filter: none; fill: inherit"/>
  </g>
  <use xlink:href="#Cloud_copy_6" style="stroke: #ffebee; filter: none; fill: none"/>
  <g style="fill: #fcfcfc; filter: url(#filter-3)">
    <path id="Cloud_copy_7" data-name="Cloud copy 7" class="cls-3" d="M3333.04,244.252s-3.15-55.445,42.81-70.57,52.57-8.757,57.42-8.982c1.81-1.192,24.91,4.84,26.88,7.974,1.95,3.115,55.52-99.491,140.16-3.7,2.28,2.588,68.16,11.9,57.53,85.021S3341.99,288.859,3333.04,244.252Z" style="stroke: inherit; filter: none; fill: inherit"/>
  </g>
  <use xlink:href="#Cloud_copy_7" style="stroke: #ffebee; filter: none; fill: none"/>
  <g style="fill: #fcfcfc; filter: url(#filter-4)">
    <path id="Cloud_copy_8" data-name="Cloud copy 8" class="cls-4" d="M3870.04,475.252s-3.15-55.445,42.81-70.57,52.57-8.757,57.42-8.982c1.81-1.192,24.91,4.84,26.88,7.974,1.95,3.115,55.52-99.491,140.16-3.7,2.28,2.588,68.16,11.9,57.53,85.021S3878.99,519.859,3870.04,475.252Z" style="stroke: inherit; filter: none; fill: inherit"/>
  </g>
  <use xlink:href="#Cloud_copy_8" style="stroke: #ffebee; filter: none; fill: none"/>
  <g style="fill: #fcfcfc; filter: url(#filter-5)">
    <path id="Cloud_copy_9" data-name="Cloud copy 9" class="cls-5" d="M4385.04,244.252s-3.15-55.445,42.81-70.57,52.57-8.757,57.42-8.982c1.81-1.192,24.91,4.84,26.88,7.974,1.95,3.115,55.52-99.491,140.16-3.7,2.28,2.588,68.16,11.9,57.53,85.021S4393.99,288.859,4385.04,244.252Z" style="stroke: inherit; filter: none; fill: inherit"/>
  </g>
  <use xlink:href="#Cloud_copy_9" style="stroke: #ffebee; filter: none; fill: none"/>
  <g style="fill: #fcfcfc; filter: url(#filter-6)">
    <path id="Cloud_copy_10" data-name="Cloud copy 10" class="cls-6" d="M5288.04,411.252s-3.15-55.445,42.81-70.57,52.57-8.757,57.42-8.982c1.81-1.192,24.91,4.84,26.88,7.974,1.95,3.115,55.52-99.491,140.16-3.7,2.28,2.588,68.16,11.9,57.53,85.021S5296.99,455.859,5288.04,411.252Z" style="stroke: inherit; filter: none; fill: inherit"/>
  </g>
  <use xlink:href="#Cloud_copy_10" style="stroke: #ffebee; filter: none; fill: none"/>
  <g style="fill: #fcfcfc; filter: url(#filter-7)">
    <path id="Cloud_copy_3" data-name="Cloud copy 3" class="cls-7" d="M1450.04,160.252s-3.15-55.445,42.81-70.57,52.57-8.757,57.42-8.982c1.81-1.192,24.91,4.84,26.88,7.974,1.95,3.115,55.52-99.491,140.16-3.7,2.28,2.588,68.16,11.9,57.53,85.021S1458.99,204.859,1450.04,160.252Z" style="stroke: inherit; filter: none; fill: inherit"/>
  </g>
  <use xlink:href="#Cloud_copy_3" style="stroke: #ffebee; filter: none; fill: none"/>
  <g style="fill: #fcfcfc; filter: url(#filter-8)">
    <path id="Cloud_copy_4" data-name="Cloud copy 4" class="cls-8" d="M933.038,411.252s-3.146-55.445,42.816-70.57,52.566-8.757,57.416-8.982c1.81-1.192,24.91,4.84,26.88,7.974,1.95,3.115,55.52-99.491,140.16-3.7,2.28,2.588,68.16,11.9,57.53,85.021S941.988,455.859,933.038,411.252Z" style="stroke: inherit; filter: none; fill: inherit"/>
  </g>
  <use xlink:href="#Cloud_copy_4" style="stroke: #ffebee; filter: none; fill: none"/>
  <g style="fill: #fcfcfc; filter: url(#filter-9)">
    <path id="Cloud_copy_5" data-name="Cloud copy 5" class="cls-9" d="M229.038,244.252s-3.146-55.445,42.816-70.57,52.57-8.757,57.413-8.982c1.81-1.192,24.917,4.84,26.882,7.974,1.952,3.115,55.525-99.491,140.156-3.7,2.287,2.588,68.167,11.9,57.535,85.021S237.988,288.859,229.038,244.252Z" style="stroke: inherit; filter: none; fill: inherit"/>
  </g>
  <use xlink:href="#Cloud_copy_5" style="stroke: #ffebee; filter: none; fill: none"/>
</svg>
